<svg xmlns="http://www.w3.org/2000/svg" width="64" height="64" viewBox="0 0 64 64" fill="none">
  <rect width="64" height="64" rx="16" fill="#f5d8dd"/>
  <rect x="1.5" y="1.5" width="61" height="61" rx="14.5" stroke="rgba(255,255,255,0.7)"/>
  <path d="M18 20.5C21.2 20.5 23.6 22.4 24.7 25.8L31.7 45.7L39.5 18.5C40 16.7 41 15.8 42.6 15.8C44.1 15.8 45.1 16.7 45.1 18.1C45.1 18.6 45 19.2 44.7 19.9L35.5 48.2C34.8 50.5 33.3 51.8 31.4 51.8C29.3 51.8 27.9 50.6 27 48L20.1 28.7C19.6 27.3 18.8 26.7 17.7 26.7C16.8 26.7 16 26 16 25C16 22.8 16.8 20.5 18 20.5Z" fill="#4d3522"/>
  <circle cx="47.5" cy="19.5" r="2.5" fill="#c92f74" fill-opacity="0.9"/>
</svg>
